<?xml version="1.0" encoding="UTF-8"?>
<svg id="_レイヤー_2" data-name="レイヤー 2" xmlns="http://www.w3.org/2000/svg" xmlns:xlink="http://www.w3.org/1999/xlink" viewBox="0 0 369.09 279.76">
  <defs>
    <style>
      .cls-1 {
        filter: url(#outer-glow-2);
      }

      .cls-2 {
        filter: url(#outer-glow-3);
      }

      .cls-3 {
        filter: url(#outer-glow-1);
      }

      .cls-4 {
        fill: #fff;
      }
    </style>
    <filter id="outer-glow-1" x="-5.41" y="93.17" width="382" height="139" filterUnits="userSpaceOnUse">
      <feOffset dx="0" dy="0"/>
      <feGaussianBlur result="blur" stdDeviation="10"/>
      <feFlood flood-color="#000" flood-opacity=".35"/>
      <feComposite in2="blur" operator="in"/>
      <feComposite in="SourceGraphic"/>
    </filter>
    <filter id="outer-glow-2" x="6.59" y="224.17" width="361" height="86" filterUnits="userSpaceOnUse">
      <feOffset dx="0" dy="0"/>
      <feGaussianBlur result="blur-2" stdDeviation="10"/>
      <feFlood flood-color="#000" flood-opacity=".45"/>
      <feComposite in2="blur-2" operator="in"/>
      <feComposite in="SourceGraphic"/>
    </filter>
    <filter id="outer-glow-3" x="-30.41" y="-30.83" width="430" height="145" filterUnits="userSpaceOnUse">
      <feOffset dx="0" dy="0"/>
      <feGaussianBlur result="blur-3" stdDeviation="10"/>
      <feFlood flood-color="#000" flood-opacity=".35"/>
      <feComposite in2="blur-3" operator="in"/>
      <feComposite in="SourceGraphic"/>
    </filter>
  </defs>
  <g id="img">
    <g>
      <g class="cls-3">
        <path class="cls-4" d="M25.19,198.52h3.7c5.15,0,6.95-1.23,6.95-6.72v-60.37c0-5.49-1.79-6.61-6.95-6.61h-3.7v-1.46h28.9c20.94,0,35.95,12.1,35.95,38.08s-16.69,38.53-36.85,38.53h-28v-1.46ZM83.1,161.89c0-24.86-9.41-37.07-29.01-37.07h-4.93c-5.27,0-7.39,1.12-7.39,6.61v60.48c0,5.49,2.13,6.61,7.39,6.61h4.37c19.04,0,29.57-12.54,29.57-36.62Z"/>
        <path class="cls-4" d="M91.52,198.52h3.7c5.15,0,6.94-1.12,6.94-6.83v-60.03c0-5.82-1.79-6.83-6.94-6.83h-3.7v-1.46h54.54l1.12,26.88h-1.12c-1.57-20.05-3.58-25.42-21.5-25.42h-9.18c-5.15,0-7.28,1.01-7.28,6.72v27.89h8.29c10.86,0,12.54-6.83,12.66-15.9h1.12v34.27h-1.12c-.11-9.3-1.68-16.91-12.66-16.91h-8.29v30.91c0,5.6,2.13,6.72,7.28,6.72h10.53c17.14,0,20.72-8.74,22.06-27.78h1.23l-1.9,29.23h-55.78v-1.46Z"/>
        <path class="cls-4" d="M167.26,132.55v52.64c0,11.09,2.69,13.33,11.2,13.33h.45v1.46h-24.53v-1.46h1.12c7.39,0,9.86-2.13,9.86-13.33v-54.88c-3.92-4.48-5.71-5.49-11.42-5.49v-1.46h14.11l44.24,67.76v-52.86c0-10.75-2.58-13.44-11.09-13.44h-.45v-1.46h24.42v1.46h-.9c-7.39,0-9.97,3.14-9.97,13.44v63.5h-1.79l-45.25-69.22Z"/>
        <path class="cls-4" d="M229.06,198.52h4.14c5.15,0,6.95-.9,6.95-6.72v-60.26c0-5.71-1.79-6.72-6.95-6.72h-4.14v-1.46h28.34v1.46h-4.03c-5.04,0-7.17,1.01-7.17,6.72v60.26c0,5.71,2.13,6.72,7.17,6.72h4.03v1.46h-28.34v-1.46Z"/>
        <path class="cls-4" d="M275.54,128.85h-.11v55.78c0,11.76,2.24,13.89,10.75,13.89h.45v1.46h-24.53v-1.46h1.79c7.28,0,9.63-2.35,9.63-13.89v-52.98c0-5.6-1.79-6.83-6.94-6.83h-3.81v-1.46h17.14l24.97,68.32,24.42-68.32h16.8v1.46h-3.58c-5.15,0-7.17,1.01-7.17,6.72v60.14c0,5.71,2.13,6.83,7.17,6.83h3.58v1.46h-26.99v-1.46h3.36c5.04,0,6.95-1.01,6.95-6.83v-62.83h-.22l-25.98,72.58h-.89l-26.77-72.58Z"/>
      </g>
      <g class="cls-1">
        <path class="cls-4" d="M43.54,266.63c.86.81,3.28,3.41,3.82,4.08l-1.02,1.4c-.49-.81-1.82-2.55-2.81-3.77v11.41h-1.72v-12.14c-1.17,2.86-2.71,5.75-4.19,7.44-.21-.47-.65-1.2-.96-1.59,1.77-1.9,3.72-5.38,4.81-8.53h-4.45v-1.64h4.79v-4.55c-1.4.36-2.89.7-4.29.99-.1-.36-.34-.94-.54-1.3,3.25-.7,7.02-1.74,9.02-2.83l1.59,1.33c-.08.08-.16.1-.29.1-.08,0-.16,0-.23-.03-.94.44-2.18.86-3.54,1.27v5.02h3.77v1.64h-3.77v1.69ZM55.12,255.78c-.03.23-.26.42-.6.49v9c0,2.26,1.04,9.39,6.58,12.9-.34.39-.86,1.12-1.09,1.56-4.5-2.86-6.01-8.32-6.32-10.56h-.03c-.31,2.31-1.87,7.59-6.6,10.56-.21-.39-.73-1.12-1.07-1.48,5.77-3.56,6.81-10.63,6.81-12.97v-9.67l.86.08,1.46.1ZM50.46,261.79c-.18,2.86-.81,5.69-2.47,7.31l-1.25-.96c1.43-1.35,2.08-3.95,2.26-6.58l1.46.23ZM56.08,268.26c.96-1.79,2.16-4.76,2.78-6.84l2.08.78c-.11.18-.31.26-.57.26-.73,1.9-1.95,4.65-2.96,6.4l-1.33-.6Z"/>
        <path class="cls-4" d="M79.03,260.33c-.1.23-.31.42-.65.42-.94,8.09-3.64,15.13-7.96,15.13-2.19,0-4.16-2.18-4.16-6.29,0-6.24,4.86-11.47,11.7-11.47,7.52,0,10.77,4.76,10.77,9.83,0,6.19-3.59,9.18-9.88,10.63-.23-.42-.68-1.12-1.09-1.59,5.98-1.14,9.05-4.06,9.05-8.97,0-4.29-2.76-8.19-8.84-8.19-.26,0-.54.03-.78.05l1.85.44ZM76.53,260c-5.25.65-8.5,4.99-8.5,9.54,0,2.78,1.2,4.52,2.44,4.52,3.15,0,5.41-6.94,6.06-14.07Z"/>
        <path class="cls-4" d="M116.65,266.55h-8.58l.44.13c-.03.16-.23.29-.52.31-.68,4.71-2.81,9.39-8.03,12.01-.29-.34-.96-.94-1.4-1.27,5.12-2.55,6.92-6.5,7.51-11.18h-9.93v-1.74h20.51v1.74ZM112.83,259.45h-14.43v-1.74h14.43v1.74ZM113.16,255.63c1.07,1.12,2.26,2.89,2.86,4.11l-1.04.7c-.54-1.2-1.79-3.04-2.83-4.11l1.01-.7ZM116.23,254.74c1.07,1.12,2.31,2.89,2.94,4.08l-1.06.65c-.55-1.14-1.85-2.99-2.86-4.06l.99-.68Z"/>
        <path class="cls-4" d="M144.77,274.35v1.77h-21.45v-1.77h21.45ZM142.22,260.07v1.79h-16.15v-1.79h16.15Z"/>
        <path class="cls-4" d="M172.83,278.3c-.39-.88-.86-1.82-1.38-2.76-5.41.57-14.3,1.12-18.28,1.33-.08.26-.26.47-.49.52l-.7-2.34c.78-.03,1.72-.05,2.73-.1,1.71-4.99,4.19-12.77,5.62-17.97l2.52.68c-.11.23-.37.36-.75.36-1.43,4.78-3.67,11.75-5.46,16.85,4.32-.18,10.48-.62,13.91-.94-1.35-2.24-3.07-4.6-4.63-6.34l1.56-.88c2.73,2.99,5.85,7.93,7.18,10.76l-1.82.83Z"/>
        <path class="cls-4" d="M200.33,259.97v17.6h-1.9v-1.43h-16.38v-1.74h16.38v-12.69h-16.12v-1.74h18.02Z"/>
        <path class="cls-4" d="M213.06,276.01c6.6-1.85,11.86-5.02,15.05-10.69.34.44.99.99,1.38,1.3-3.51,5.98-9.31,9.46-17.13,11.52-.05.21-.21.44-.42.52l-1.09-1.82.31-.49v-19.16l2.68.13c-.03.29-.26.52-.78.57v18.12Z"/>
        <path class="cls-4" d="M256,261.27c-.11.13-.23.26-.39.36-2.73,8.42-6.99,13.83-14.17,17.47-.31-.44-.81-1.04-1.33-1.43,6.81-3.3,11.02-8.5,13.18-15.39h-9.28c-1.51,2.34-3.51,4.6-5.82,6.42-.36-.36-.96-.86-1.48-1.2,3.54-2.73,6.53-6.71,8.29-11.28l2.47.7c-.1.26-.42.34-.75.34-.52,1.14-1.07,2.24-1.66,3.28h9.15l.31-.16,1.48.88Z"/>
        <path class="cls-4" d="M264.14,263.79c2.34.52,5.25,1.51,6.99,2.34l-.78,1.64c-1.71-.83-4.71-1.87-6.99-2.39l.78-1.59ZM265.7,276.51c8.45-2.83,14.22-7.33,17.68-15.13.39.34,1.2.88,1.59,1.14-3.48,7.72-9.54,12.53-17.5,15.37.05.23-.08.55-.31.65l-1.46-2.03ZM267,257.34c2.34.62,5.2,1.66,6.97,2.55l-.86,1.59c-1.85-.94-4.55-1.98-6.89-2.63l.78-1.51Z"/>
        <path class="cls-4" d="M306.87,263.12v15.81h-1.56v-1.14h-11.68v-1.46h11.68v-5.28h-10.63v-1.46h10.63v-5.04h-11.03v-1.43h12.58Z"/>
        <path class="cls-4" d="M317.31,258.44c2.71.86,5.82,2.21,7.75,3.54l-.99,1.64c-1.87-1.33-4.94-2.7-7.59-3.61l.83-1.56ZM317.21,276.45c9.23-2.86,15.37-8.03,18.49-15.24.55.44,1.14.78,1.69,1.07-3.25,7.12-9.59,12.66-18.41,15.6-.03.23-.18.49-.36.6l-1.4-2.03Z"/>
      </g>
      <g class="cls-2">
        <path class="cls-4" d="M58.79,16.35H20.1v18.53h30.58v15.44h-30.58v32.33H0V0h58.79v16.35Z"/>
        <path class="cls-4" d="M139.68,0v51.46c0,8.32-.95,14.5-2.85,18.56s-5.4,7.39-10.5,9.99c-5.11,2.6-11.64,3.91-19.59,3.91s-14.28-1.17-18.98-3.51c-4.7-2.34-8.22-5.67-10.57-9.99-2.34-4.32-3.51-10.64-3.51-18.95V0h21.01v51.46c0,4.44.37,7.71,1.12,9.81.75,2.1,2.24,3.76,4.48,5,2.24,1.23,4.99,1.85,8.26,1.85,3.63,0,6.59-.61,8.87-1.82,2.28-1.21,3.79-2.82,4.54-4.81.75-2,1.12-5.34,1.12-10.02V0h16.59Z"/>
        <path class="cls-4" d="M225.11,0v82.65h-16.52l-32.34-55.82c.04,1.41.08,2.34.12,2.79.16,1.41.24,2.6.24,3.57v49.47h-15.08V0h20.87l28.12,48.74c-.24-2.42-.36-4.26-.36-5.51V0h14.96Z"/>
        <path class="cls-4" d="M245.88,51.49v-.78h13.26v.78c-3.28.16-4.45.94-4.45,2.18,0,1.01.31,2.5.94,4.06l8.04,20.9,6.94-16.38-2.26-6.47c-.86-2.42-1.48-4.13-4.84-4.29v-.78h12.56v.78c-3.12.16-4.45.94-4.45,2.18,0,1.01.54,2.5,1.09,4.21l6.79,20.28,6.79-18.25c.78-2.03,1.33-3.9,1.33-5.38,0-2.26-1.4-2.96-4.53-3.04v-.78h11.15v.78c-3.04.16-3.9,1.95-5.15,5.23l-10.53,27.3h-.7l-6.71-20.05-8.42,20.05h-.7l-10.45-27.3c-1.4-3.67-2.26-5.15-5.7-5.23Z"/>
        <path class="cls-4" d="M297.75,82.22h.78c3.43,0,4.21-.62,4.21-4.29v-22c0-3.98-.78-4.52-4.21-4.52h-.78v-.7l8.66-.55v27.77c0,3.74.78,4.29,4.21,4.29h.78v.78h-13.65v-.78ZM300.32,36.67c0-1.87,1.48-3.35,3.35-3.35s3.36,1.48,3.36,3.35-1.56,3.35-3.36,3.35-3.35-1.48-3.35-3.35Z"/>
        <path class="cls-4" d="M317.56,74.18v-22.46h-5.3v-.94c4.91-.78,7.88-4.06,8.19-14.66h.78v14.59h11.08v1.01h-11.08v23.32c0,5.3,1.56,7.88,5.7,7.8,3.98-.08,6.63-4.52,6.63-11h1.01c0,7.18-3.2,12.17-8.19,12.17-5.62,0-8.81-3.2-8.81-9.83Z"/>
        <path class="cls-4" d="M335,82.22h.7c3.28,0,4.21-.47,4.21-4.37v-42.75c0-3.9-.78-4.6-4.21-4.6h-.94v-.78l8.74-1.4v24.26c0,3.2-.39,8.27-.39,8.27h.16c2.5-7.41,7.18-10.76,12.25-10.76,6.01,0,9.21,3.59,9.21,11.39v16.38c0,3.82,1.01,4.37,3.74,4.37h.62v.78h-13.49v-.78h1.09c3.51,0,4.37-.62,4.37-4.37v-18.8c0-5.77-3.04-7.25-6.24-7.25-6.08,0-11.23,6.47-11.23,13.26v12.79c0,3.74.86,4.37,4.29,4.37h1.01v.78h-13.88v-.78Z"/>
      </g>
    </g>
  </g>
</svg>